<?xml version="1.0" encoding="utf-8"?>
<!-- Generator: Adobe Illustrator 24.2.0, SVG Export Plug-In . SVG Version: 6.00 Build 0)  -->
<svg version="1.1" id="Layer_1" xmlns="http://www.w3.org/2000/svg" xmlns:xlink="http://www.w3.org/1999/xlink" x="0px" y="0px"
	 viewBox="0 0 40 30" style="enable-background:new 0 0 40 30;" xml:space="preserve">
<g>
	<path d="M20,8.4c-3.9,3.8-7.9,7.8-11.9,11.7c-0.7,0.7-1.3,1.4-2.1,2.1c-1.6,1.4-3.3,1.6-4.8,0.1c-1.4-1.4-1.2-3.2,0.1-4.6
		c1.6-1.7,3.2-3.3,4.8-5C9.8,9,13.4,5.3,17,1.6c2.2-2.2,3.8-2.2,6-0.1C28.1,6.7,33.1,11.9,38.2,17c1.6,1.6,2.1,3.4,0.6,5.2
		c-1.2,1.5-3.5,1.2-5.4-0.6C29,17.2,24.4,12.8,20,8.4z"/>
	<path d="M20.1,30c-3,0-5.6-2.6-5.5-5.7c0.1-3,2.5-5.4,5.4-5.4c3,0,5.6,2.6,5.5,5.6C25.4,27.5,23,30,20.1,30z"/>
</g>
</svg>
